<?xml version="1.0" encoding="UTF-8"?>
<!-- Generated by Pixelmator Pro 3.5.11 -->
<svg width="165" height="26" viewBox="0 0 165 26" xmlns="http://www.w3.org/2000/svg">
    <g id="Group">
        <path id="Path" fill="#04387c" stroke="none" d="M 43.700001 7.799999 L 43.700001 7.799999 L 43.5 7.799999 L 41.400002 17.700001 L 45.5 17.700001 L 43.700001 7.799999 Z M 46.900002 24.200001 L 46 19.5 L 41.099998 19.5 L 40 24.200001 L 36.400002 24.200001 L 41.099998 5.799999 L 46.299999 5.799999 L 50.799999 24.200001 L 46.900002 24.200001 Z"/>
        <path id="path1" fill="#04387c" stroke="none" d="M 53.400002 24.200001 L 53.400002 5.799999 L 57.200001 5.799999 L 57.200001 22.300001 L 62.599998 22.300001 L 62.599998 24.200001 Z"/>
        <path id="path2" fill="#04387c" stroke="none" d="M 71.199997 7.799999 L 71.199997 7.799999 L 71 7.799999 L 68.900002 17.700001 L 73 17.700001 L 71.199997 7.799999 Z M 74.300003 24.200001 L 73.400002 19.5 L 68.5 19.5 L 67.400002 24.200001 L 63.799999 24.200001 L 68.599998 5.799999 L 73.800003 5.799999 L 78.300003 24.200001 C 78.300003 24.200001 74.300003 24.200001 74.300003 24.200001 Z"/>
        <path id="path3" fill="#04387c" stroke="none" d="M 88.5 17.6 L 88.5 17.6 C 88.5 15.9 87.900002 15.5 85.300003 15.5 L 84.5 15.5 L 84.5 22.4 L 85.300003 22.4 C 87.900002 22.4 88.5 21.9 88.5 20.300001 L 88.5 17.6 Z M 88.199997 9.700001 L 88.199997 9.700001 C 88.199997 8.1 87.699997 7.700001 85.199997 7.700001 L 84.400002 7.700001 L 84.400002 13.8 L 85.199997 13.8 C 87.599998 13.8 88.199997 13.3 88.199997 11.8 L 88.199997 9.700001 Z M 86.199997 24.200001 L 80.800003 24.200001 L 80.800003 5.799999 L 85.900002 5.799999 C 90.199997 5.799999 92.099998 6.5 92.099998 8.9 L 92.099998 11.900001 C 92.099998 13.6 91.099998 14.400001 88.5 14.700001 C 91.199997 14.900001 92.400002 15.700001 92.400002 17.4 L 92.400002 21.200001 C 92.400002 23.5 90.599998 24.200001 86.199997 24.200001 Z"/>
        <path id="path4" fill="#009ee3" stroke="none" d="M 98.300003 23.9 L 102.099998 11.1 L 103.699997 11.1 L 99.900002 23.9 Z"/>
        <path id="path5" fill="#009ee3" stroke="none" d="M 107.300003 19.200001 L 107.300003 19.200001 C 105.699997 19.200001 105.099998 19.5 104.800003 20.4 L 104.400002 21.800001 C 104.099998 22.700001 104.199997 23.200001 105 23.200001 C 105.800003 23.200001 106.199997 22.800001 106.5 21.800001 L 107.300003 19.200001 Z M 106 23.9 L 106.099998 23.300001 C 105.5 23.800001 104.800003 24.1 103.900002 24.1 C 102.5 24.1 102.300003 23.4 102.699997 22.1 L 103.199997 20.300001 C 103.599998 18.9 104.800003 18.4 107.599998 18.300001 L 108 17 C 108.300003 16 108.199997 15.6 107.400002 15.6 C 106.599998 15.6 106.300003 15.9 106 16.700001 L 105.900002 17.200001 L 104.300003 17.200001 L 104.400002 17 C 104.900002 15.400001 105.599998 14.700001 107.699997 14.700001 C 109.800003 14.700001 110.099998 15.400001 109.599998 17 L 107.599998 23.800001 L 106 23.9 Z"/>
        <path id="path6" fill="#009ee3" stroke="none" d="M 115.599998 17.1 L 115.599998 17.1 C 115.900002 16.200001 115.800003 15.700001 115 15.700001 C 114.199997 15.700001 113.800003 16.1 113.5 17.1 L 112.099998 21.9 C 111.800003 22.800001 111.900002 23.300001 112.800003 23.300001 C 113.699997 23.300001 114 22.9 114.300003 21.9 L 115.599998 17.1 Z M 113.300003 24.1 C 112.400002 24.1 111.900002 23.800001 111.599998 23.300001 L 111.300003 23.800001 L 109.800003 23.800001 L 113.599998 11 L 115.199997 11 L 113.900002 15.400001 C 114.5 14.900001 115.199997 14.6 116.099998 14.6 C 117.5 14.6 117.699997 15.3 117.300003 16.6 L 115.699997 21.800001 C 115.300003 23.5 114.699997 24.1 113.300003 24.1 Z"/>
        <path id="path7" fill="#009ee3" stroke="none" d="M 123.199997 17.1 L 123.199997 17.1 C 123.5 16.200001 123.400002 15.700001 122.599998 15.700001 C 121.800003 15.700001 121.400002 16.1 121.099998 17.1 L 119.699997 21.9 C 119.400002 22.800001 119.5 23.300001 120.300003 23.300001 C 121.099998 23.300001 121.400002 22.9 121.699997 21.9 L 123.199997 17.1 Z M 120.099998 24.200001 C 117.900002 24.200001 117.699997 23.4 118.199997 21.6 L 119.5 17.4 C 120 15.6 120.699997 14.900001 122.900002 14.900001 C 125 14.900001 125.300003 15.700001 124.800003 17.4 L 123.5 21.700001 C 123 23.4 122.300003 24.200001 120.099998 24.200001 Z"/>
        <path id="path8" fill="#009ee3" stroke="none" d="M 131 16 C 129.600006 16 129 16.4 128.699997 17.5 L 126.800003 24 L 125.199997 24 L 127.900002 15.1 L 129.399994 15.1 L 129.300003 15.700001 C 129.899994 15.200001 130.600006 14.900001 131.399994 14.900001 C 131.5 14.900001 131.600006 14.900001 131.699997 14.900001 L 131.399994 16 L 131 16 Z"/>
        <path id="path9" fill="#009ee3" stroke="none" d="M 135 19.300001 L 135 19.300001 C 133.399994 19.300001 132.800003 19.6 132.5 20.5 L 132.100006 21.9 C 131.800003 22.800001 131.899994 23.300001 132.699997 23.300001 C 133.5 23.300001 133.899994 22.9 134.199997 21.9 L 135 19.300001 Z M 133.699997 24 L 133.800003 23.5 C 133.199997 24 132.5 24.300001 131.600006 24.300001 C 130.199997 24.300001 130 23.6 130.399994 22.300001 L 130.899994 20.5 C 131.300003 19.1 132.5 18.6 135.300003 18.5 L 135.699997 17.200001 C 136 16.200001 135.899994 15.800001 135.100006 15.800001 C 134.300003 15.800001 134 16.1 133.699997 16.9 L 133.600006 17.4 L 132 17.4 L 132.100006 17.200001 C 132.600006 15.6 133.300003 14.900001 135.399994 14.900001 C 137.5 14.900001 137.800003 15.6 137.300003 17.200001 L 135.300003 24 L 133.699997 24 Z"/>
        <path id="path10" fill="#009ee3" stroke="none" d="M 139.600006 24.200001 C 137.699997 24.200001 137.699997 23.6 138.199997 22 L 140 15.9 L 139.100006 15.9 L 139.399994 15 L 140.300003 15 L 140.899994 13 L 142.600006 12.6 L 141.899994 15 L 143.100006 15 L 142.800003 15.9 L 141.600006 15.9 L 139.600006 22.5 C 139.5 23 139.600006 23.200001 140.399994 23.200001 L 140.600006 23.200001 L 140.300003 24.1 C 140.100006 24.200001 139.800003 24.200001 139.600006 24.200001"/>
        <path id="path11" fill="#009ee3" stroke="none" d="M 147.699997 17.200001 L 147.699997 17.200001 C 148 16.300001 147.899994 15.800001 147.100006 15.800001 C 146.300003 15.800001 145.899994 16.200001 145.600006 17.200001 L 144.199997 22 C 143.899994 22.9 144 23.4 144.800003 23.4 C 145.600006 23.4 145.899994 23 146.199997 22 L 147.699997 17.200001 Z M 144.5 24.200001 C 142.300003 24.200001 142.100006 23.4 142.600006 21.6 L 143.899994 17.4 C 144.399994 15.6 145.100006 14.900001 147.300003 14.900001 C 149.5 14.900001 149.699997 15.700001 149.199997 17.4 L 147.899994 21.700001 C 147.399994 23.5 146.699997 24.200001 144.5 24.200001 Z"/>
        <path id="path12" fill="#009ee3" stroke="none" d="M 155.5 16 C 154.100006 16 153.5 16.4 153.199997 17.5 L 151.300003 24 L 149.699997 24 L 152.399994 15.1 L 153.899994 15.1 L 153.800003 15.700001 C 154.399994 15.200001 155.100006 14.900001 155.899994 14.900001 C 156 14.900001 156.100006 14.900001 156.199997 14.900001 L 155.899994 16 L 155.5 16 Z"/>
        <path id="path13" fill="#009ee3" stroke="none" d="M 157.800003 12.6 L 157.800003 12.6 L 158.199997 11.3 L 160 11.3 L 159.600006 12.6 L 157.800003 12.6 Z M 154.399994 24 L 157.100006 15.1 L 158.699997 15.1 L 156 24 L 154.399994 24 Z"/>
        <path id="path14" fill="#009ee3" stroke="none" d="M 163.399994 19.300001 L 163.399994 19.300001 C 161.800003 19.300001 161.199997 19.6 160.899994 20.5 L 160.5 21.9 C 160.199997 22.800001 160.300003 23.300001 161.100006 23.300001 C 161.899994 23.300001 162.300003 22.9 162.600006 21.9 L 163.399994 19.300001 Z M 162.100006 24 L 162.199997 23.4 C 161.600006 23.9 160.899994 24.200001 160 24.200001 C 158.600006 24.200001 158.399994 23.5 158.800003 22.200001 L 159.300003 20.4 C 159.699997 19 160.899994 18.5 163.699997 18.4 L 164.100006 17.1 C 164.399994 16.1 164.300003 15.700001 163.5 15.700001 C 162.699997 15.700001 162.399994 16 162.100006 16.800001 L 161.899994 17.300001 L 160.300003 17.300001 L 160.399994 17.1 C 160.899994 15.5 161.600006 14.8 163.699997 14.8 C 165.800003 14.8 166.100006 15.5 165.600006 17.1 L 163.5 23.9 L 162.100006 24 Z"/>
        <path id="path15" fill="#009ee3" stroke="none" d="M 98.300003 23.9 L 102.099998 11.1 L 103.699997 11.1 L 99.900002 23.9 Z"/>
        <path id="path16" fill="#009ee3" stroke="none" d="M 107.300003 19.200001 L 107.300003 19.200001 C 105.699997 19.200001 105.099998 19.5 104.800003 20.4 L 104.400002 21.800001 C 104.099998 22.700001 104.199997 23.200001 105 23.200001 C 105.800003 23.200001 106.199997 22.800001 106.5 21.800001 L 107.300003 19.200001 Z M 106 23.9 L 106.099998 23.300001 C 105.5 23.800001 104.800003 24.1 103.900002 24.1 C 102.5 24.1 102.300003 23.4 102.699997 22.1 L 103.199997 20.300001 C 103.599998 18.9 104.800003 18.4 107.599998 18.300001 L 108 17 C 108.300003 16 108.199997 15.6 107.400002 15.6 C 106.599998 15.6 106.300003 15.9 106 16.700001 L 105.900002 17.200001 L 104.300003 17.200001 L 104.400002 17 C 104.900002 15.400001 105.599998 14.700001 107.699997 14.700001 C 109.800003 14.700001 110.099998 15.400001 109.599998 17 L 107.599998 23.800001 L 106 23.9 Z"/>
        <path id="path17" fill="#009ee3" stroke="none" d="M 115.599998 17.1 L 115.599998 17.1 C 115.900002 16.200001 115.800003 15.700001 115 15.700001 C 114.199997 15.700001 113.800003 16.1 113.5 17.1 L 112.099998 21.9 C 111.800003 22.800001 111.900002 23.300001 112.800003 23.300001 C 113.699997 23.300001 114 22.9 114.300003 21.9 L 115.599998 17.1 Z M 113.300003 24.1 C 112.400002 24.1 111.900002 23.800001 111.599998 23.300001 L 111.300003 23.800001 L 109.800003 23.800001 L 113.599998 11 L 115.199997 11 L 113.900002 15.400001 C 114.5 14.900001 115.199997 14.6 116.099998 14.6 C 117.5 14.6 117.699997 15.3 117.300003 16.6 L 115.699997 21.800001 C 115.300003 23.5 114.699997 24.1 113.300003 24.1 Z"/>
        <path id="path18" fill="#009ee3" stroke="none" d="M 123.199997 17.1 L 123.199997 17.1 C 123.5 16.200001 123.400002 15.700001 122.599998 15.700001 C 121.800003 15.700001 121.400002 16.1 121.099998 17.1 L 119.699997 21.9 C 119.400002 22.800001 119.5 23.300001 120.300003 23.300001 C 121.099998 23.300001 121.400002 22.9 121.699997 21.9 L 123.199997 17.1 Z M 120.099998 24.200001 C 117.900002 24.200001 117.699997 23.4 118.199997 21.6 L 119.5 17.4 C 120 15.6 120.699997 14.900001 122.900002 14.900001 C 125 14.900001 125.300003 15.700001 124.800003 17.4 L 123.5 21.700001 C 123 23.4 122.300003 24.200001 120.099998 24.200001 Z"/>
        <path id="path19" fill="#009ee3" stroke="none" d="M 131 16 C 129.600006 16 129 16.4 128.699997 17.5 L 126.800003 24 L 125.199997 24 L 127.900002 15.1 L 129.399994 15.1 L 129.300003 15.700001 C 129.899994 15.200001 130.600006 14.900001 131.399994 14.900001 C 131.5 14.900001 131.600006 14.900001 131.699997 14.900001 L 131.399994 16 L 131 16 Z"/>
        <path id="path20" fill="#009ee3" stroke="none" d="M 135 19.300001 L 135 19.300001 C 133.399994 19.300001 132.800003 19.6 132.5 20.5 L 132.100006 21.9 C 131.800003 22.800001 131.899994 23.300001 132.699997 23.300001 C 133.5 23.300001 133.899994 22.9 134.199997 21.9 L 135 19.300001 Z M 133.699997 24 L 133.800003 23.5 C 133.199997 24 132.5 24.300001 131.600006 24.300001 C 130.199997 24.300001 130 23.6 130.399994 22.300001 L 130.899994 20.5 C 131.300003 19.1 132.5 18.6 135.300003 18.5 L 135.699997 17.200001 C 136 16.200001 135.899994 15.800001 135.100006 15.800001 C 134.300003 15.800001 134 16.1 133.699997 16.9 L 133.600006 17.4 L 132 17.4 L 132.100006 17.200001 C 132.600006 15.6 133.300003 14.900001 135.399994 14.900001 C 137.5 14.900001 137.800003 15.6 137.300003 17.200001 L 135.300003 24 L 133.699997 24 Z"/>
        <path id="path21" fill="#009ee3" stroke="none" d="M 139.600006 24.200001 C 137.699997 24.200001 137.699997 23.6 138.199997 22 L 140 15.9 L 139.100006 15.9 L 139.399994 15 L 140.300003 15 L 140.899994 13 L 142.600006 12.6 L 141.899994 15 L 143.100006 15 L 142.800003 15.9 L 141.600006 15.9 L 139.600006 22.5 C 139.5 23 139.600006 23.200001 140.399994 23.200001 L 140.600006 23.200001 L 140.300003 24.1 C 140.100006 24.200001 139.800003 24.200001 139.600006 24.200001"/>
        <path id="path22" fill="#009ee3" stroke="none" d="M 147.699997 17.200001 L 147.699997 17.200001 C 148 16.300001 147.899994 15.800001 147.100006 15.800001 C 146.300003 15.800001 145.899994 16.200001 145.600006 17.200001 L 144.199997 22 C 143.899994 22.9 144 23.4 144.800003 23.4 C 145.600006 23.4 145.899994 23 146.199997 22 L 147.699997 17.200001 Z M 144.5 24.200001 C 142.300003 24.200001 142.100006 23.4 142.600006 21.6 L 143.899994 17.4 C 144.399994 15.6 145.100006 14.900001 147.300003 14.900001 C 149.5 14.900001 149.699997 15.700001 149.199997 17.4 L 147.899994 21.700001 C 147.399994 23.5 146.699997 24.200001 144.5 24.200001 Z"/>
        <path id="path23" fill="#009ee3" stroke="none" d="M 155.5 16 C 154.100006 16 153.5 16.4 153.199997 17.5 L 151.300003 24 L 149.699997 24 L 152.399994 15.1 L 153.899994 15.1 L 153.800003 15.700001 C 154.399994 15.200001 155.100006 14.900001 155.899994 14.900001 C 156 14.900001 156.100006 14.900001 156.199997 14.900001 L 155.899994 16 L 155.5 16 Z"/>
        <path id="path24" fill="#009ee3" stroke="none" d="M 157.800003 12.6 L 157.800003 12.6 L 158.199997 11.3 L 160 11.3 L 159.600006 12.6 L 157.800003 12.6 Z M 154.399994 24 L 157.100006 15.1 L 158.699997 15.1 L 156 24 L 154.399994 24 Z"/>
        <path id="path25" fill="#009ee3" stroke="none" d="M 163.399994 19.300001 L 163.399994 19.300001 C 161.800003 19.300001 161.199997 19.6 160.899994 20.5 L 160.5 21.9 C 160.199997 22.800001 160.300003 23.300001 161.100006 23.300001 C 161.899994 23.300001 162.300003 22.9 162.600006 21.9 L 163.399994 19.300001 Z M 162.100006 24 L 162.199997 23.4 C 161.600006 23.9 160.899994 24.200001 160 24.200001 C 158.600006 24.200001 158.399994 23.5 158.800003 22.200001 L 159.300003 20.4 C 159.699997 19 160.899994 18.5 163.699997 18.4 L 164.100006 17.1 C 164.399994 16.1 164.300003 15.700001 163.5 15.700001 C 162.699997 15.700001 162.399994 16 162.100006 16.800001 L 161.899994 17.300001 L 160.300003 17.300001 L 160.399994 17.1 C 160.899994 15.5 161.600006 14.8 163.699997 14.8 C 165.800003 14.8 166.100006 15.5 165.600006 17.1 L 163.5 23.9 L 162.100006 24 Z"/>
        <path id="path26" fill="#009ee3" stroke="none" d="M 25.200001 18 C 25 18 23.700001 18.1 23.299999 18.1 C 21 18.1 18.9 17 17.6 15.3 L 17.5 15.200001 C 16.700001 14 16.200001 12.6 16.200001 11.1 C 16.200001 9.6 17.9 6.200001 18.1 5.799999 C 20 2.6 17.6 -0.4 14.7 -0.4 C 11.8 -0.4 9.5 2.6 11.3 5.799999 C 11.5 6.1 13.3 9.4 13.3 11.1 C 13.3 12.400001 12.9 13.700001 12.3 14.700001 C 12.3 14.700001 11.9 15.3 11.8 15.400001 C 10.5 17.1 8.5 18.1 6.2 18.1 C 5.8 18.1 4.5 18 4.2 18 C 0.5 18 -0.9 21.5 0.5 24 C 1.9 26.5 5.7 27 7.6 23.800001 C 7.8 23.5 7.9 23.200001 8.1 22.9 C 9.2 20.4 11.8 18.6 14.7 18.6 C 17.5 18.6 20 20.300001 21.1 22.6 C 21.4 23 21.6 23.300001 21.799999 23.700001 C 23.700001 26.9 27.4 26.4 28.9 23.9 C 30.4 21.5 28.9 18 25.200001 18"/>
    </g>
</svg>
